<?xml version="1.0" encoding="UTF-8" standalone="no"?><!DOCTYPE svg PUBLIC "-//W3C//DTD SVG 1.1//EN" "http://www.w3.org/Graphics/SVG/1.1/DTD/svg11.dtd"><svg width="100%" height="100%" viewBox="0 0 356 319" version="1.1" xmlns="http://www.w3.org/2000/svg" xmlns:xlink="http://www.w3.org/1999/xlink" xml:space="preserve" xmlns:serif="http://www.serif.com/" style="fill-rule:evenodd;clip-rule:evenodd;stroke-linejoin:round;stroke-miterlimit:2;"><rect id="Artboard1" x="-410.092" y="-186.36" width="787.071" height="738.986" style="fill:none;"/><path d="M1.014,246.093l-0,-156.994c-0,0 10.989,-85.646 88.952,-86.919c81.318,-1.328 164.296,-1.328 172.262,-0.996c7.966,0.332 65.334,-0.487 89.616,70.365c1.021,2.979 1.876,61.682 2.208,79.848c0.177,9.715 1.087,21.219 -0.218,29.148c-1.079,6.558 -4.622,13.218 -7.613,18.428c-2.734,4.763 -5.944,9.531 -10.332,12.834c-5.058,3.807 -14.409,8.118 -20.012,10.006c-4.319,1.455 -9.202,1.573 -13.609,1.322c-4.373,-0.249 -8.726,-1.305 -12.834,-2.828c-4.205,-1.559 -9.025,-4.223 -12.398,-6.525c-2.948,-2.012 -5.577,-4.659 -7.845,-7.287c-2.233,-2.589 -3.989,-5.562 -5.764,-8.484c-2.103,-3.462 -4.622,-8.193 -6.852,-12.29c-2.217,-4.074 -4.249,-8.249 -6.526,-12.29c-3.333,-5.914 -11.069,-19.133 -13.472,-23.199c-0.259,-0.438 -0.686,-1.634 -0.945,-1.197c-3.294,5.547 -14.628,26.955 -18.816,34.477c-2.008,3.608 -3.716,7.541 -6.308,10.659c-2.592,3.118 -6.562,6.145 -9.244,8.048c-2.076,1.473 -4.747,2.574 -6.849,3.372c-1.85,0.701 -3.84,1.155 -5.764,1.414c-1.91,0.256 -3.858,0.274 -5.78,0.138c-2.32,-0.163 -5.704,0.133 -8.142,-1.117c-3.332,-1.709 -8.582,-5.37 -11.855,-9.136c-3.389,-3.901 -5.882,-9.386 -8.483,-14.272c-3.29,-6.18 -8.365,-17.306 -11.257,-22.812c-1.844,-3.512 -5.815,-10.708 -6.09,-10.224c-5.358,9.445 -29.165,52.596 -35.497,63.734c-0.066,0.116 -7.123,0.288 -10.056,0.273c-9.861,-0.049 -30.619,-0.184 -30.512,-0.382c11.664,-21.53 36.437,-66.661 51.009,-95.043c4.426,-8.621 14.191,-11.017 14.87,-11.288c0.714,-0.285 3.34,-1.648 12.211,-1.305c3.613,0.139 7.414,1.323 10.441,2.936c3.016,1.607 5.433,4.207 7.722,6.743c2.357,2.611 4.532,5.855 6.417,8.919c1.861,3.024 3.285,6.297 4.895,9.462c1.649,3.245 3.22,6.731 5.003,10.006c1.91,3.509 4.535,8.018 6.456,11.046c1.562,2.459 3.668,6.619 5.072,7.117c1.404,0.498 2.399,-2.634 3.353,-4.128c1.169,-1.83 2.383,-4.602 3.659,-6.857c1.472,-2.601 3.487,-5.923 5.173,-8.751c1.636,-2.745 3.538,-5.741 4.942,-8.216c1.232,-2.172 2.229,-4.472 3.48,-6.634c1.326,-2.292 2.973,-4.906 4.477,-7.117c1.435,-2.109 2.847,-4.294 4.55,-6.152c1.702,-1.856 3.545,-3.642 5.669,-4.995c2.247,-1.432 5.047,-2.854 7.817,-3.597c2.844,-0.762 6.151,-1.152 9.245,-0.979c3.698,0.208 8.976,1.919 12.171,4.025c2.841,1.872 5.532,4.432 7.726,6.915c2.131,2.413 3.751,5.24 5.434,7.985c1.823,2.972 3.816,6.806 5.502,9.852c1.549,2.8 3.068,5.617 4.613,8.419c1.602,2.908 3.528,6.445 5.003,9.028c1.244,2.178 2.612,4.285 3.848,6.468c1.466,2.592 3.319,6.041 4.947,9.078c1.632,3.044 3.203,6.532 4.844,9.186c1.472,2.381 3.349,5.005 5.003,6.744c1.412,1.485 3.04,2.998 4.918,3.689c1.879,0.691 4.445,0.783 6.355,0.457c1.856,-0.317 3.727,-1.134 5.108,-2.415c1.547,-1.434 3.489,-3.798 4.175,-6.191c0.768,-2.682 0.375,-6.601 0.435,-9.906c0.072,-4.031 0.012,-10.256 -0,-14.279c-0.01,-3.288 -0.039,-6.575 -0.075,-9.862c-0.047,-4.345 -0.194,-11.28 -0.208,-16.205c-0.013,-4.45 0.11,-8.899 0.123,-13.349c0.015,-4.835 0.132,-10.621 -0.036,-15.665c-0.163,-4.873 -0.39,-10.483 -0.973,-14.595c-0.487,-3.428 -1.491,-6.947 -2.529,-10.076c-0.992,-2.991 -2.465,-6.276 -3.698,-8.701c-1.045,-2.056 -2.375,-4.041 -3.698,-5.849c-1.291,-1.765 -2.675,-3.478 -4.241,-5.003c-1.659,-1.616 -3.896,-3.313 -5.709,-4.69c-1.668,-1.268 -3.358,-2.522 -5.168,-3.576c-2.112,-1.231 -4.891,-2.788 -7.504,-3.807c-2.88,-1.123 -6.437,-2.27 -9.773,-2.931c-3.481,-0.69 -7.683,-0.937 -11.112,-1.21c-3.146,-0.25 -6.303,-0.423 -9.459,-0.427c-29.605,-0.035 -137.493,-0.522 -168.168,0.218c-5.475,0.132 -11.091,1.87 -15.879,4.223c-4.788,2.353 -9.949,7.39 -12.849,9.895c-1.731,1.494 -3.143,3.332 -4.553,5.132c-1.592,2.034 -3.534,4.713 -5.003,7.07c-1.415,2.271 -2.737,4.839 -3.806,7.069c-0.985,2.054 -1.861,4.164 -2.61,6.315c-0.816,2.34 -1.77,5.135 -2.284,7.722c-0.51,2.565 -0.774,5.189 -0.801,7.804c-0.252,24.265 -0.593,112.057 -0.713,137.787c-0.025,5.53 0.001,11.06 -0.002,16.59c-0.01,14.441 -0.023,68.145 -0.053,70.06c-0.002,0.114 -35.741,-0.045 -35.741,-0.045l0.014,-71.23Z" style="fill:#FFF;"/></svg>